<svg version="1.1" id="Capa_1" xmlns="http://www.w3.org/2000/svg" xmlns:xlink="http://www.w3.org/1999/xlink" x="0px" y="0px"	 viewBox="0 0 512.001 512.001" style="enable-background:new 0 0 512.001 512.001;" xml:space="preserve"><g>	<g>		<path d="M466.333,66.387c-29.502-29.502-68.727-45.748-110.45-45.748c-36.9,0-71.847,12.709-99.841,36.055			c-27.995-23.346-62.944-36.055-99.842-36.055c-41.722,0-80.947,16.247-110.45,45.748C16.247,95.89,0,135.114,0,176.837			s16.247,80.948,45.749,110.449c0.01,0.01,0.02,0.018,0.028,0.028c0.009,0.009,0.018,0.018,0.026,0.026l199.628,199.628			c2.93,2.93,6.769,4.394,10.609,4.394c3.839,0,7.679-1.465,10.607-4.394l199.568-199.565c0.05-0.049,0.099-0.097,0.146-0.145			c0.044-0.044,0.091-0.092,0.14-0.142C527.225,226.203,527.164,127.215,466.333,66.387z"/>	</g></g><g></g><g></g><g></g><g></g><g></g><g></g><g></g><g></g><g></g><g></g><g></g><g></g><g></g><g></g><g></g></svg>